<?xml version="1.0" encoding="UTF-8" standalone="no"?>
<!DOCTYPE svg PUBLIC "-//W3C//DTD SVG 1.1//EN"
 "http://www.w3.org/Graphics/SVG/1.1/DTD/svg11.dtd">
<!-- Generated by graphviz version 2.43.0 (0)
 -->
<!-- Title: snakemake_dag Pages: 1 -->
<svg width="1406pt" height="260pt"
 viewBox="0.00 0.00 1406.00 260.00" xmlns="http://www.w3.org/2000/svg" xmlns:xlink="http://www.w3.org/1999/xlink">
<g id="graph0" class="graph" transform="scale(1 1) rotate(0) translate(4 256)">
<title>snakemake_dag</title>
<polygon fill="white" stroke="transparent" points="-4,4 -4,-256 1402,-256 1402,4 -4,4"/>
<!-- 0 -->
<g id="node1" class="node">
<title>0</title>
<path fill="none" stroke="#70d856" stroke-width="2" stroke-dasharray="5,2" d="M916,-36C916,-36 886,-36 886,-36 880,-36 874,-30 874,-24 874,-24 874,-12 874,-12 874,-6 880,0 886,0 886,0 916,0 916,0 922,0 928,-6 928,-12 928,-12 928,-24 928,-24 928,-30 922,-36 916,-36"/>
<text text-anchor="middle" x="901" y="-15.5" font-family="sans" font-size="10.00">all</text>
</g>
<!-- 1 -->
<g id="node2" class="node">
<title>1</title>
<path fill="none" stroke="#d85656" stroke-width="2" stroke-dasharray="5,2" d="M737,-108C737,-108 599,-108 599,-108 593,-108 587,-102 587,-96 587,-96 587,-84 587,-84 587,-78 593,-72 599,-72 599,-72 737,-72 737,-72 743,-72 749,-78 749,-84 749,-84 749,-96 749,-96 749,-102 743,-108 737,-108"/>
<text text-anchor="middle" x="668" y="-87.5" font-family="sans" font-size="10.00">combinePubchemAnnotations</text>
</g>
<!-- 1&#45;&gt;0 -->
<g id="edge1" class="edge">
<title>1&#45;&gt;0</title>
<path fill="none" stroke="grey" stroke-width="2" d="M724.7,-71.97C767.92,-58.98 826.2,-41.47 863.7,-30.21"/>
<polygon fill="grey" stroke="grey" stroke-width="2" points="865.12,-33.43 873.69,-27.2 863.11,-26.73 865.12,-33.43"/>
</g>
<!-- 2 -->
<g id="node3" class="node">
<title>2</title>
<path fill="none" stroke="#afd856" stroke-width="2" stroke-dasharray="5,2" d="M156,-180C156,-180 12,-180 12,-180 6,-180 0,-174 0,-168 0,-168 0,-156 0,-156 0,-150 6,-144 12,-144 12,-144 156,-144 156,-144 162,-144 168,-150 168,-156 168,-156 168,-168 168,-168 168,-174 162,-180 156,-180"/>
<text text-anchor="middle" x="84" y="-165" font-family="sans" font-size="10.00">getExternalAnnotationFromCID</text>
<text text-anchor="middle" x="84" y="-154" font-family="sans" font-size="10.00">annotationType: ATC Code</text>
</g>
<!-- 2&#45;&gt;1 -->
<g id="edge3" class="edge">
<title>2&#45;&gt;1</title>
<path fill="none" stroke="grey" stroke-width="2" d="M168.1,-145.34C171.1,-144.87 174.08,-144.42 177,-144 315.9,-123.84 477.94,-107.79 576.72,-98.84"/>
<polygon fill="grey" stroke="grey" stroke-width="2" points="577.32,-102.3 586.97,-97.91 576.7,-95.32 577.32,-102.3"/>
</g>
<!-- 3 -->
<g id="node4" class="node">
<title>3</title>
<path fill="none" stroke="#5692d8" stroke-width="2" stroke-dasharray="5,2" d="M647.5,-252C647.5,-252 476.5,-252 476.5,-252 470.5,-252 464.5,-246 464.5,-240 464.5,-240 464.5,-228 464.5,-228 464.5,-222 470.5,-216 476.5,-216 476.5,-216 647.5,-216 647.5,-216 653.5,-216 659.5,-222 659.5,-228 659.5,-228 659.5,-240 659.5,-240 659.5,-246 653.5,-252 647.5,-252"/>
<text text-anchor="middle" x="562" y="-237" font-family="sans" font-size="10.00">mapTreatmentNamesToPubchemCID</text>
<text text-anchor="middle" x="562" y="-226" font-family="sans" font-size="10.00">dataset: ctrp</text>
</g>
<!-- 3&#45;&gt;2 -->
<g id="edge9" class="edge">
<title>3&#45;&gt;2</title>
<path fill="none" stroke="grey" stroke-width="2" d="M464.11,-220.73C388.63,-210.99 281.39,-196.54 178.1,-180.14"/>
<polygon fill="grey" stroke="grey" stroke-width="2" points="178.55,-176.67 168.12,-178.55 177.44,-183.58 178.55,-176.67"/>
</g>
<!-- 4 -->
<g id="node5" class="node">
<title>4</title>
<path fill="none" stroke="#afd856" stroke-width="2" stroke-dasharray="5,2" d="M342,-180C342,-180 198,-180 198,-180 192,-180 186,-174 186,-168 186,-168 186,-156 186,-156 186,-150 192,-144 198,-144 198,-144 342,-144 342,-144 348,-144 354,-150 354,-156 354,-156 354,-168 354,-168 354,-174 348,-180 342,-180"/>
<text text-anchor="middle" x="270" y="-165" font-family="sans" font-size="10.00">getExternalAnnotationFromCID</text>
<text text-anchor="middle" x="270" y="-154" font-family="sans" font-size="10.00">annotationType: NSC Number</text>
</g>
<!-- 3&#45;&gt;4 -->
<g id="edge10" class="edge">
<title>3&#45;&gt;4</title>
<path fill="none" stroke="grey" stroke-width="2" d="M490.94,-215.97C448.65,-205.83 394.84,-192.93 350.91,-182.4"/>
<polygon fill="grey" stroke="grey" stroke-width="2" points="351.66,-178.98 341.12,-180.05 350.03,-185.78 351.66,-178.98"/>
</g>
<!-- 5 -->
<g id="node6" class="node">
<title>5</title>
<path fill="none" stroke="#afd856" stroke-width="2" stroke-dasharray="5,2" d="M528,-180C528,-180 384,-180 384,-180 378,-180 372,-174 372,-168 372,-168 372,-156 372,-156 372,-150 378,-144 384,-144 384,-144 528,-144 528,-144 534,-144 540,-150 540,-156 540,-156 540,-168 540,-168 540,-174 534,-180 528,-180"/>
<text text-anchor="middle" x="456" y="-165" font-family="sans" font-size="10.00">getExternalAnnotationFromCID</text>
<text text-anchor="middle" x="456" y="-154" font-family="sans" font-size="10.00">annotationType: ChEMBL ID</text>
</g>
<!-- 3&#45;&gt;5 -->
<g id="edge11" class="edge">
<title>3&#45;&gt;5</title>
<path fill="none" stroke="grey" stroke-width="2" d="M536.07,-215.88C522.34,-206.81 505.29,-195.55 490.46,-185.76"/>
<polygon fill="grey" stroke="grey" stroke-width="2" points="492.3,-182.78 482.03,-180.19 488.45,-188.62 492.3,-182.78"/>
</g>
<!-- 6 -->
<g id="node7" class="node">
<title>6</title>
<path fill="none" stroke="#afd856" stroke-width="2" stroke-dasharray="5,2" d="M766,-180C766,-180 570,-180 570,-180 564,-180 558,-174 558,-168 558,-168 558,-156 558,-156 558,-150 564,-144 570,-144 570,-144 766,-144 766,-144 772,-144 778,-150 778,-156 778,-156 778,-168 778,-168 778,-174 772,-180 766,-180"/>
<text text-anchor="middle" x="668" y="-165" font-family="sans" font-size="10.00">getExternalAnnotationFromCID</text>
<text text-anchor="middle" x="668" y="-154" font-family="sans" font-size="10.00">annotationType: Drug Induced Liver Injury</text>
</g>
<!-- 3&#45;&gt;6 -->
<g id="edge12" class="edge">
<title>3&#45;&gt;6</title>
<path fill="none" stroke="grey" stroke-width="2" d="M587.93,-215.88C601.66,-206.81 618.71,-195.55 633.54,-185.76"/>
<polygon fill="grey" stroke="grey" stroke-width="2" points="635.55,-188.62 641.97,-180.19 631.7,-182.78 635.55,-188.62"/>
</g>
<!-- 7 -->
<g id="node8" class="node">
<title>7</title>
<path fill="none" stroke="#afd856" stroke-width="2" stroke-dasharray="5,2" d="M952,-180C952,-180 808,-180 808,-180 802,-180 796,-174 796,-168 796,-168 796,-156 796,-156 796,-150 802,-144 808,-144 808,-144 952,-144 952,-144 958,-144 964,-150 964,-156 964,-156 964,-168 964,-168 964,-174 958,-180 952,-180"/>
<text text-anchor="middle" x="880" y="-165" font-family="sans" font-size="10.00">getExternalAnnotationFromCID</text>
<text text-anchor="middle" x="880" y="-154" font-family="sans" font-size="10.00">annotationType: CAS</text>
</g>
<!-- 3&#45;&gt;7 -->
<g id="edge13" class="edge">
<title>3&#45;&gt;7</title>
<path fill="none" stroke="grey" stroke-width="2" d="M639.38,-215.97C685.64,-205.78 744.54,-192.82 792.49,-182.26"/>
<polygon fill="grey" stroke="grey" stroke-width="2" points="793.53,-185.62 802.54,-180.05 792.03,-178.78 793.53,-185.62"/>
</g>
<!-- 8 -->
<g id="node9" class="node">
<title>8</title>
<path fill="none" stroke="#56d8a9" stroke-width="2" stroke-dasharray="5,2" d="M1094,-180C1094,-180 994,-180 994,-180 988,-180 982,-174 982,-168 982,-168 982,-156 982,-156 982,-150 988,-144 994,-144 994,-144 1094,-144 1094,-144 1100,-144 1106,-150 1106,-156 1106,-156 1106,-168 1106,-168 1106,-174 1100,-180 1094,-180"/>
<text text-anchor="middle" x="1044" y="-159.5" font-family="sans" font-size="10.00">getPropertiesFromCID</text>
</g>
<!-- 3&#45;&gt;8 -->
<g id="edge14" class="edge">
<title>3&#45;&gt;8</title>
<path fill="none" stroke="grey" stroke-width="2" d="M659.61,-223.38C740.73,-214.7 859.31,-200.43 971.59,-180.16"/>
<polygon fill="grey" stroke="grey" stroke-width="2" points="972.53,-183.54 981.74,-178.3 971.28,-176.66 972.53,-183.54"/>
</g>
<!-- 4&#45;&gt;1 -->
<g id="edge4" class="edge">
<title>4&#45;&gt;1</title>
<path fill="none" stroke="grey" stroke-width="2" d="M354.14,-145.58C357.13,-145.05 360.09,-144.52 363,-144 434.8,-131.2 516.18,-117.08 576.8,-106.63"/>
<polygon fill="grey" stroke="grey" stroke-width="2" points="577.47,-110.07 586.73,-104.92 576.28,-103.17 577.47,-110.07"/>
</g>
<!-- 5&#45;&gt;1 -->
<g id="edge5" class="edge">
<title>5&#45;&gt;1</title>
<path fill="none" stroke="grey" stroke-width="2" d="M507.59,-143.97C537.47,-134.1 575.26,-121.62 606.66,-111.25"/>
<polygon fill="grey" stroke="grey" stroke-width="2" points="607.78,-114.57 616.18,-108.11 605.59,-107.92 607.78,-114.57"/>
</g>
<!-- 6&#45;&gt;1 -->
<g id="edge6" class="edge">
<title>6&#45;&gt;1</title>
<path fill="none" stroke="grey" stroke-width="2" d="M668,-143.7C668,-135.98 668,-126.71 668,-118.11"/>
<polygon fill="grey" stroke="grey" stroke-width="2" points="671.5,-118.1 668,-108.1 664.5,-118.1 671.5,-118.1"/>
</g>
<!-- 7&#45;&gt;1 -->
<g id="edge7" class="edge">
<title>7&#45;&gt;1</title>
<path fill="none" stroke="grey" stroke-width="2" d="M828.41,-143.97C798.53,-134.1 760.74,-121.62 729.34,-111.25"/>
<polygon fill="grey" stroke="grey" stroke-width="2" points="730.41,-107.92 719.82,-108.11 728.22,-114.57 730.41,-107.92"/>
</g>
<!-- 8&#45;&gt;1 -->
<g id="edge8" class="edge">
<title>8&#45;&gt;1</title>
<path fill="none" stroke="grey" stroke-width="2" d="M981.71,-145.85C978.77,-145.21 975.86,-144.59 973,-144 901.45,-129.23 819.89,-115.2 759.13,-105.29"/>
<polygon fill="grey" stroke="grey" stroke-width="2" points="759.61,-101.83 749.18,-103.68 758.48,-108.74 759.61,-101.83"/>
</g>
<!-- 9 -->
<g id="node10" class="node">
<title>9</title>
<path fill="none" stroke="#56d873" stroke-width="2" stroke-dasharray="5,2" d="M1221.5,-108C1221.5,-108 1046.5,-108 1046.5,-108 1040.5,-108 1034.5,-102 1034.5,-96 1034.5,-96 1034.5,-84 1034.5,-84 1034.5,-78 1040.5,-72 1046.5,-72 1046.5,-72 1221.5,-72 1221.5,-72 1227.5,-72 1233.5,-78 1233.5,-84 1233.5,-84 1233.5,-96 1233.5,-96 1233.5,-102 1227.5,-108 1221.5,-108"/>
<text text-anchor="middle" x="1134" y="-87.5" font-family="sans" font-size="10.00">combineSampleCellosaurusMetadata</text>
</g>
<!-- 9&#45;&gt;0 -->
<g id="edge2" class="edge">
<title>9&#45;&gt;0</title>
<path fill="none" stroke="grey" stroke-width="2" d="M1077.3,-71.97C1034.08,-58.98 975.8,-41.47 938.3,-30.21"/>
<polygon fill="grey" stroke="grey" stroke-width="2" points="938.89,-26.73 928.31,-27.2 936.88,-33.43 938.89,-26.73"/>
</g>
<!-- 10 -->
<g id="node11" class="node">
<title>10</title>
<path fill="none" stroke="#d88d56" stroke-width="2" stroke-dasharray="5,2" d="M1386,-180C1386,-180 1174,-180 1174,-180 1168,-180 1162,-174 1162,-168 1162,-168 1162,-156 1162,-156 1162,-150 1168,-144 1174,-144 1174,-144 1386,-144 1386,-144 1392,-144 1398,-150 1398,-156 1398,-156 1398,-168 1398,-168 1398,-174 1392,-180 1386,-180"/>
<text text-anchor="middle" x="1280" y="-165" font-family="sans" font-size="10.00">mapSampleNamesToCellosaurusAccessionID</text>
<text text-anchor="middle" x="1280" y="-154" font-family="sans" font-size="10.00">dataset: ctrp</text>
</g>
<!-- 10&#45;&gt;9 -->
<g id="edge15" class="edge">
<title>10&#45;&gt;9</title>
<path fill="none" stroke="grey" stroke-width="2" d="M1244.28,-143.88C1224.5,-134.39 1199.73,-122.51 1178.67,-112.42"/>
<polygon fill="grey" stroke="grey" stroke-width="2" points="1180.13,-109.24 1169.6,-108.07 1177.1,-115.55 1180.13,-109.24"/>
</g>
<!-- 11 -->
<g id="node12" class="node">
<title>11</title>
<path fill="none" stroke="#56c9d8" stroke-width="2" stroke-dasharray="5,2" d="M1255.5,-252C1255.5,-252 1158.5,-252 1158.5,-252 1152.5,-252 1146.5,-246 1146.5,-240 1146.5,-240 1146.5,-228 1146.5,-228 1146.5,-222 1152.5,-216 1158.5,-216 1158.5,-216 1255.5,-216 1255.5,-216 1261.5,-216 1267.5,-222 1267.5,-228 1267.5,-228 1267.5,-240 1267.5,-240 1267.5,-246 1261.5,-252 1255.5,-252"/>
<text text-anchor="middle" x="1207" y="-231.5" font-family="sans" font-size="10.00">getCellosaurusObject</text>
</g>
<!-- 11&#45;&gt;9 -->
<g id="edge16" class="edge">
<title>11&#45;&gt;9</title>
<path fill="none" stroke="grey" stroke-width="2" d="M1184.17,-215.95C1173.14,-206.53 1160.66,-193.93 1153,-180 1142.5,-160.9 1137.8,-136.55 1135.7,-118.14"/>
<polygon fill="grey" stroke="grey" stroke-width="2" points="1139.17,-117.7 1134.74,-108.08 1132.2,-118.37 1139.17,-117.7"/>
</g>
<!-- 11&#45;&gt;10 -->
<g id="edge17" class="edge">
<title>11&#45;&gt;10</title>
<path fill="none" stroke="grey" stroke-width="2" d="M1225.04,-215.7C1234.06,-207.05 1245.12,-196.45 1254.94,-187.03"/>
<polygon fill="grey" stroke="grey" stroke-width="2" points="1257.37,-189.55 1262.16,-180.1 1252.52,-184.5 1257.37,-189.55"/>
</g>
</g>
</svg>
