<?xml version="1.0" encoding="UTF-8" standalone="no"?>
<!DOCTYPE svg PUBLIC "-//W3C//DTD SVG 1.1//EN"
 "http://www.w3.org/Graphics/SVG/1.1/DTD/svg11.dtd">
<!-- Generated by graphviz version 2.43.0 (0)
 -->
<!-- Title: snakemake_dag Pages: 1 -->
<svg width="3632pt" height="260pt"
 viewBox="0.00 0.00 3631.50 260.00" xmlns="http://www.w3.org/2000/svg" xmlns:xlink="http://www.w3.org/1999/xlink">
<g id="graph0" class="graph" transform="scale(1 1) rotate(0) translate(4 256)">
<title>snakemake_dag</title>
<polygon fill="white" stroke="transparent" points="-4,4 -4,-256 3627.5,-256 3627.5,4 -4,4"/>
<!-- 0 -->
<g id="node1" class="node">
<title>0</title>
<path fill="none" stroke="#d88d56" stroke-width="2" d="M1833,-36C1833,-36 1803,-36 1803,-36 1797,-36 1791,-30 1791,-24 1791,-24 1791,-12 1791,-12 1791,-6 1797,0 1803,0 1803,0 1833,0 1833,0 1839,0 1845,-6 1845,-12 1845,-12 1845,-24 1845,-24 1845,-30 1839,-36 1833,-36"/>
<text text-anchor="middle" x="1818" y="-15.5" font-family="sans" font-size="10.00">all</text>
</g>
<!-- 1 -->
<g id="node2" class="node">
<title>1</title>
<path fill="none" stroke="#70d856" stroke-width="2" d="M1617,-108C1617,-108 1479,-108 1479,-108 1473,-108 1467,-102 1467,-96 1467,-96 1467,-84 1467,-84 1467,-78 1473,-72 1479,-72 1479,-72 1617,-72 1617,-72 1623,-72 1629,-78 1629,-84 1629,-84 1629,-96 1629,-96 1629,-102 1623,-108 1617,-108"/>
<text text-anchor="middle" x="1548" y="-87.5" font-family="sans" font-size="10.00">combinePubchemAnnotations</text>
</g>
<!-- 1&#45;&gt;0 -->
<g id="edge1" class="edge">
<title>1&#45;&gt;0</title>
<path fill="none" stroke="grey" stroke-width="2" d="M1613.7,-71.97C1666.31,-58.33 1738.16,-39.7 1781.15,-28.55"/>
<polygon fill="grey" stroke="grey" stroke-width="2" points="1782.1,-31.92 1790.9,-26.03 1780.34,-25.15 1782.1,-31.92"/>
</g>
<!-- 2 -->
<g id="node3" class="node">
<title>2</title>
<path fill="none" stroke="#afd856" stroke-width="2" d="M484,-180C484,-180 340,-180 340,-180 334,-180 328,-174 328,-168 328,-168 328,-156 328,-156 328,-150 334,-144 340,-144 340,-144 484,-144 484,-144 490,-144 496,-150 496,-156 496,-156 496,-168 496,-168 496,-174 490,-180 484,-180"/>
<text text-anchor="middle" x="412" y="-165" font-family="sans" font-size="10.00">getExternalAnnotationFromCID</text>
<text text-anchor="middle" x="412" y="-154" font-family="sans" font-size="10.00">annotationType: ATC Code</text>
</g>
<!-- 2&#45;&gt;1 -->
<g id="edge5" class="edge">
<title>2&#45;&gt;1</title>
<path fill="none" stroke="grey" stroke-width="2" d="M496.08,-145.13C499.08,-144.72 502.07,-144.34 505,-144 855.19,-103.27 1275.15,-93.84 1456.84,-91.65"/>
<polygon fill="grey" stroke="grey" stroke-width="2" points="1456.93,-95.15 1466.89,-91.54 1456.85,-88.15 1456.93,-95.15"/>
</g>
<!-- 21 -->
<g id="node22" class="node">
<title>21</title>
<path fill="none" stroke="#70d856" stroke-width="2" d="M1797,-108C1797,-108 1659,-108 1659,-108 1653,-108 1647,-102 1647,-96 1647,-96 1647,-84 1647,-84 1647,-78 1653,-72 1659,-72 1659,-72 1797,-72 1797,-72 1803,-72 1809,-78 1809,-84 1809,-84 1809,-96 1809,-96 1809,-102 1803,-108 1797,-108"/>
<text text-anchor="middle" x="1728" y="-87.5" font-family="sans" font-size="10.00">combinePubchemAnnotations</text>
</g>
<!-- 2&#45;&gt;21 -->
<g id="edge37" class="edge">
<title>2&#45;&gt;21</title>
<path fill="none" stroke="grey" stroke-width="2" d="M496.07,-145.05C499.08,-144.67 502.06,-144.31 505,-144 1002.66,-90.91 1135.45,-161.97 1636.62,-108.04"/>
<polygon fill="grey" stroke="grey" stroke-width="2" points="1637.09,-111.51 1646.65,-106.95 1636.33,-104.55 1637.09,-111.51"/>
</g>
<!-- 23 -->
<g id="node24" class="node">
<title>23</title>
<path fill="none" stroke="#70d856" stroke-width="2" d="M1977,-108C1977,-108 1839,-108 1839,-108 1833,-108 1827,-102 1827,-96 1827,-96 1827,-84 1827,-84 1827,-78 1833,-72 1839,-72 1839,-72 1977,-72 1977,-72 1983,-72 1989,-78 1989,-84 1989,-84 1989,-96 1989,-96 1989,-102 1983,-108 1977,-108"/>
<text text-anchor="middle" x="1908" y="-87.5" font-family="sans" font-size="10.00">combinePubchemAnnotations</text>
</g>
<!-- 2&#45;&gt;23 -->
<g id="edge54" class="edge">
<title>2&#45;&gt;23</title>
<path fill="none" stroke="grey" stroke-width="2" d="M496.07,-145.04C499.08,-144.65 502.06,-144.31 505,-144 1082.21,-83.69 1235.77,-169.36 1816.34,-108.07"/>
<polygon fill="grey" stroke="grey" stroke-width="2" points="1817.08,-111.51 1826.65,-106.97 1816.34,-104.55 1817.08,-111.51"/>
</g>
<!-- 3 -->
<g id="node4" class="node">
<title>3</title>
<path fill="none" stroke="#d8cb56" stroke-width="2" d="M590.5,-252C590.5,-252 419.5,-252 419.5,-252 413.5,-252 407.5,-246 407.5,-240 407.5,-240 407.5,-228 407.5,-228 407.5,-222 413.5,-216 419.5,-216 419.5,-216 590.5,-216 590.5,-216 596.5,-216 602.5,-222 602.5,-228 602.5,-228 602.5,-240 602.5,-240 602.5,-246 596.5,-252 590.5,-252"/>
<text text-anchor="middle" x="505" y="-237" font-family="sans" font-size="10.00">mapTreatmentNamesToPubchemCID</text>
<text text-anchor="middle" x="505" y="-226" font-family="sans" font-size="10.00">dataset: ccle</text>
</g>
<!-- 3&#45;&gt;2 -->
<g id="edge21" class="edge">
<title>3&#45;&gt;2</title>
<path fill="none" stroke="grey" stroke-width="2" d="M482.01,-215.7C470.19,-206.8 455.61,-195.82 442.82,-186.2"/>
<polygon fill="grey" stroke="grey" stroke-width="2" points="444.82,-183.32 434.72,-180.1 440.61,-188.91 444.82,-183.32"/>
</g>
<!-- 4 -->
<g id="node5" class="node">
<title>4</title>
<path fill="none" stroke="#afd856" stroke-width="2" d="M670,-180C670,-180 526,-180 526,-180 520,-180 514,-174 514,-168 514,-168 514,-156 514,-156 514,-150 520,-144 526,-144 526,-144 670,-144 670,-144 676,-144 682,-150 682,-156 682,-156 682,-168 682,-168 682,-174 676,-180 670,-180"/>
<text text-anchor="middle" x="598" y="-165" font-family="sans" font-size="10.00">getExternalAnnotationFromCID</text>
<text text-anchor="middle" x="598" y="-154" font-family="sans" font-size="10.00">annotationType: NSC Number</text>
</g>
<!-- 3&#45;&gt;4 -->
<g id="edge22" class="edge">
<title>3&#45;&gt;4</title>
<path fill="none" stroke="grey" stroke-width="2" d="M527.99,-215.7C539.81,-206.8 554.39,-195.82 567.18,-186.2"/>
<polygon fill="grey" stroke="grey" stroke-width="2" points="569.39,-188.91 575.28,-180.1 565.18,-183.32 569.39,-188.91"/>
</g>
<!-- 5 -->
<g id="node6" class="node">
<title>5</title>
<path fill="none" stroke="#afd856" stroke-width="2" d="M856,-180C856,-180 712,-180 712,-180 706,-180 700,-174 700,-168 700,-168 700,-156 700,-156 700,-150 706,-144 712,-144 712,-144 856,-144 856,-144 862,-144 868,-150 868,-156 868,-156 868,-168 868,-168 868,-174 862,-180 856,-180"/>
<text text-anchor="middle" x="784" y="-165" font-family="sans" font-size="10.00">getExternalAnnotationFromCID</text>
<text text-anchor="middle" x="784" y="-154" font-family="sans" font-size="10.00">annotationType: ChEMBL ID</text>
</g>
<!-- 3&#45;&gt;5 -->
<g id="edge23" class="edge">
<title>3&#45;&gt;5</title>
<path fill="none" stroke="grey" stroke-width="2" d="M572.89,-215.97C613.06,-205.89 664.1,-193.08 705.93,-182.59"/>
<polygon fill="grey" stroke="grey" stroke-width="2" points="706.95,-185.94 715.8,-180.11 705.25,-179.15 706.95,-185.94"/>
</g>
<!-- 6 -->
<g id="node7" class="node">
<title>6</title>
<path fill="none" stroke="#afd856" stroke-width="2" d="M1094,-180C1094,-180 898,-180 898,-180 892,-180 886,-174 886,-168 886,-168 886,-156 886,-156 886,-150 892,-144 898,-144 898,-144 1094,-144 1094,-144 1100,-144 1106,-150 1106,-156 1106,-156 1106,-168 1106,-168 1106,-174 1100,-180 1094,-180"/>
<text text-anchor="middle" x="996" y="-165" font-family="sans" font-size="10.00">getExternalAnnotationFromCID</text>
<text text-anchor="middle" x="996" y="-154" font-family="sans" font-size="10.00">annotationType: Drug Induced Liver Injury</text>
</g>
<!-- 3&#45;&gt;6 -->
<g id="edge24" class="edge">
<title>3&#45;&gt;6</title>
<path fill="none" stroke="grey" stroke-width="2" d="M602.52,-219.12C675.06,-208.79 776.82,-194.29 875.62,-180.2"/>
<polygon fill="grey" stroke="grey" stroke-width="2" points="876.38,-183.62 885.78,-178.75 875.39,-176.69 876.38,-183.62"/>
</g>
<!-- 7 -->
<g id="node8" class="node">
<title>7</title>
<path fill="none" stroke="#afd856" stroke-width="2" d="M298,-180C298,-180 154,-180 154,-180 148,-180 142,-174 142,-168 142,-168 142,-156 142,-156 142,-150 148,-144 154,-144 154,-144 298,-144 298,-144 304,-144 310,-150 310,-156 310,-156 310,-168 310,-168 310,-174 304,-180 298,-180"/>
<text text-anchor="middle" x="226" y="-165" font-family="sans" font-size="10.00">getExternalAnnotationFromCID</text>
<text text-anchor="middle" x="226" y="-154" font-family="sans" font-size="10.00">annotationType: CAS</text>
</g>
<!-- 3&#45;&gt;7 -->
<g id="edge25" class="edge">
<title>3&#45;&gt;7</title>
<path fill="none" stroke="grey" stroke-width="2" d="M437.11,-215.97C396.94,-205.89 345.9,-193.08 304.07,-182.59"/>
<polygon fill="grey" stroke="grey" stroke-width="2" points="304.75,-179.15 294.2,-180.11 303.05,-185.94 304.75,-179.15"/>
</g>
<!-- 20 -->
<g id="node21" class="node">
<title>20</title>
<path fill="none" stroke="#5692d8" stroke-width="2" d="M112,-180C112,-180 12,-180 12,-180 6,-180 0,-174 0,-168 0,-168 0,-156 0,-156 0,-150 6,-144 12,-144 12,-144 112,-144 112,-144 118,-144 124,-150 124,-156 124,-156 124,-168 124,-168 124,-174 118,-180 112,-180"/>
<text text-anchor="middle" x="62" y="-159.5" font-family="sans" font-size="10.00">getPropertiesFromCID</text>
</g>
<!-- 3&#45;&gt;20 -->
<g id="edge36" class="edge">
<title>3&#45;&gt;20</title>
<path fill="none" stroke="grey" stroke-width="2" d="M407.46,-221.64C334.68,-212.57 232.64,-198.61 134.38,-180.17"/>
<polygon fill="grey" stroke="grey" stroke-width="2" points="134.74,-176.68 124.27,-178.26 133.44,-183.56 134.74,-176.68"/>
</g>
<!-- 4&#45;&gt;1 -->
<g id="edge6" class="edge">
<title>4&#45;&gt;1</title>
<path fill="none" stroke="grey" stroke-width="2" d="M682.08,-145.17C685.09,-144.75 688.07,-144.36 691,-144 968.64,-110.16 1299.67,-97.45 1456.68,-93.08"/>
<polygon fill="grey" stroke="grey" stroke-width="2" points="1456.87,-96.58 1466.77,-92.8 1456.68,-89.58 1456.87,-96.58"/>
</g>
<!-- 4&#45;&gt;21 -->
<g id="edge38" class="edge">
<title>4&#45;&gt;21</title>
<path fill="none" stroke="grey" stroke-width="2" d="M682.07,-145.08C685.08,-144.68 688.06,-144.32 691,-144 1106.4,-98.37 1217.73,-154.33 1636.69,-108.04"/>
<polygon fill="grey" stroke="grey" stroke-width="2" points="1637.1,-111.52 1646.65,-106.93 1636.32,-104.56 1637.1,-111.52"/>
</g>
<!-- 4&#45;&gt;23 -->
<g id="edge55" class="edge">
<title>4&#45;&gt;23</title>
<path fill="none" stroke="grey" stroke-width="2" d="M682.07,-145.05C685.08,-144.67 688.06,-144.31 691,-144 1186.03,-91.15 1318.11,-161.73 1816.68,-108.04"/>
<polygon fill="grey" stroke="grey" stroke-width="2" points="1817.09,-111.51 1826.65,-106.95 1816.33,-104.55 1817.09,-111.51"/>
</g>
<!-- 5&#45;&gt;1 -->
<g id="edge7" class="edge">
<title>5&#45;&gt;1</title>
<path fill="none" stroke="grey" stroke-width="2" d="M868.09,-145.23C871.09,-144.8 874.07,-144.38 877,-144 1083.31,-117.07 1327.23,-101.96 1456.64,-95.26"/>
<polygon fill="grey" stroke="grey" stroke-width="2" points="1457.09,-98.74 1466.9,-94.73 1456.73,-91.75 1457.09,-98.74"/>
</g>
<!-- 5&#45;&gt;21 -->
<g id="edge39" class="edge">
<title>5&#45;&gt;21</title>
<path fill="none" stroke="grey" stroke-width="2" d="M868.07,-145.11C871.08,-144.71 874.06,-144.34 877,-144 1210.12,-105.85 1299.97,-146.71 1636.61,-108.06"/>
<polygon fill="grey" stroke="grey" stroke-width="2" points="1637.11,-111.53 1646.64,-106.89 1636.31,-104.57 1637.11,-111.53"/>
</g>
<!-- 5&#45;&gt;23 -->
<g id="edge56" class="edge">
<title>5&#45;&gt;23</title>
<path fill="none" stroke="grey" stroke-width="2" d="M868.07,-145.08C871.08,-144.68 874.06,-144.32 877,-144 1289.67,-98.62 1400.34,-154.06 1816.45,-108.07"/>
<polygon fill="grey" stroke="grey" stroke-width="2" points="1817.1,-111.52 1826.65,-106.93 1816.32,-104.56 1817.1,-111.52"/>
</g>
<!-- 6&#45;&gt;1 -->
<g id="edge8" class="edge">
<title>6&#45;&gt;1</title>
<path fill="none" stroke="grey" stroke-width="2" d="M1106.21,-145.18C1109.17,-144.78 1112.1,-144.38 1115,-144 1232.9,-128.37 1369.08,-111.97 1456.76,-101.63"/>
<polygon fill="grey" stroke="grey" stroke-width="2" points="1457.42,-105.08 1466.94,-100.43 1456.6,-98.12 1457.42,-105.08"/>
</g>
<!-- 6&#45;&gt;21 -->
<g id="edge40" class="edge">
<title>6&#45;&gt;21</title>
<path fill="none" stroke="grey" stroke-width="2" d="M1106.18,-144.97C1109.15,-144.63 1112.09,-144.31 1115,-144 1343.42,-119.86 1405.16,-137.17 1636.56,-108.1"/>
<polygon fill="grey" stroke="grey" stroke-width="2" points="1637.16,-111.55 1646.63,-106.81 1636.27,-104.6 1637.16,-111.55"/>
</g>
<!-- 6&#45;&gt;23 -->
<g id="edge57" class="edge">
<title>6&#45;&gt;23</title>
<path fill="none" stroke="grey" stroke-width="2" d="M1106.18,-144.9C1109.15,-144.58 1112.09,-144.28 1115,-144 1423.05,-114.17 1505.59,-144.45 1816.43,-108.09"/>
<polygon fill="grey" stroke="grey" stroke-width="2" points="1817.12,-111.53 1826.64,-106.88 1816.3,-104.58 1817.12,-111.53"/>
</g>
<!-- 7&#45;&gt;1 -->
<g id="edge9" class="edge">
<title>7&#45;&gt;1</title>
<path fill="none" stroke="grey" stroke-width="2" d="M310.07,-145.1C313.08,-144.7 316.06,-144.33 319,-144 742.41,-96.4 1252.3,-90.8 1456.72,-90.65"/>
<polygon fill="grey" stroke="grey" stroke-width="2" points="1456.81,-94.15 1466.81,-90.65 1456.81,-87.15 1456.81,-94.15"/>
</g>
<!-- 7&#45;&gt;21 -->
<g id="edge41" class="edge">
<title>7&#45;&gt;21</title>
<path fill="none" stroke="grey" stroke-width="2" d="M310.07,-145.04C313.08,-144.65 316.06,-144.31 319,-144 898.85,-83.45 1053.11,-169.6 1636.29,-108.07"/>
<polygon fill="grey" stroke="grey" stroke-width="2" points="1637.08,-111.51 1646.65,-106.97 1636.34,-104.55 1637.08,-111.51"/>
</g>
<!-- 7&#45;&gt;23 -->
<g id="edge58" class="edge">
<title>7&#45;&gt;23</title>
<path fill="none" stroke="grey" stroke-width="2" d="M310.06,-145.02C313.08,-144.65 316.06,-144.3 319,-144 978.52,-76.22 1153.49,-177.03 1816.37,-108.06"/>
<polygon fill="grey" stroke="grey" stroke-width="2" points="1817.07,-111.5 1826.65,-106.98 1816.34,-104.54 1817.07,-111.5"/>
</g>
<!-- 8 -->
<g id="node9" class="node">
<title>8</title>
<path fill="none" stroke="#afd856" stroke-width="2" d="M1466,-180C1466,-180 1322,-180 1322,-180 1316,-180 1310,-174 1310,-168 1310,-168 1310,-156 1310,-156 1310,-150 1316,-144 1322,-144 1322,-144 1466,-144 1466,-144 1472,-144 1478,-150 1478,-156 1478,-156 1478,-168 1478,-168 1478,-174 1472,-180 1466,-180"/>
<text text-anchor="middle" x="1394" y="-165" font-family="sans" font-size="10.00">getExternalAnnotationFromCID</text>
<text text-anchor="middle" x="1394" y="-154" font-family="sans" font-size="10.00">annotationType: ATC Code</text>
</g>
<!-- 8&#45;&gt;1 -->
<g id="edge10" class="edge">
<title>8&#45;&gt;1</title>
<path fill="none" stroke="grey" stroke-width="2" d="M1431.67,-143.88C1452.63,-134.35 1478.9,-122.41 1501.18,-112.28"/>
<polygon fill="grey" stroke="grey" stroke-width="2" points="1502.79,-115.39 1510.45,-108.07 1499.9,-109.02 1502.79,-115.39"/>
</g>
<!-- 8&#45;&gt;21 -->
<g id="edge42" class="edge">
<title>8&#45;&gt;21</title>
<path fill="none" stroke="grey" stroke-width="2" d="M1475.28,-143.97C1524.16,-133.72 1586.47,-120.66 1637,-110.07"/>
<polygon fill="grey" stroke="grey" stroke-width="2" points="1637.87,-113.47 1646.94,-107.99 1636.43,-106.62 1637.87,-113.47"/>
</g>
<!-- 8&#45;&gt;23 -->
<g id="edge59" class="edge">
<title>8&#45;&gt;23</title>
<path fill="none" stroke="grey" stroke-width="2" d="M1478.1,-145.34C1481.1,-144.88 1484.08,-144.43 1487,-144 1630.15,-123.16 1669.86,-129.45 1816.34,-108.18"/>
<polygon fill="grey" stroke="grey" stroke-width="2" points="1817.23,-111.59 1826.61,-106.67 1816.21,-104.66 1817.23,-111.59"/>
</g>
<!-- 9 -->
<g id="node10" class="node">
<title>9</title>
<path fill="none" stroke="#d8cb56" stroke-width="2" d="M1747.5,-252C1747.5,-252 1576.5,-252 1576.5,-252 1570.5,-252 1564.5,-246 1564.5,-240 1564.5,-240 1564.5,-228 1564.5,-228 1564.5,-222 1570.5,-216 1576.5,-216 1576.5,-216 1747.5,-216 1747.5,-216 1753.5,-216 1759.5,-222 1759.5,-228 1759.5,-228 1759.5,-240 1759.5,-240 1759.5,-246 1753.5,-252 1747.5,-252"/>
<text text-anchor="middle" x="1662" y="-237" font-family="sans" font-size="10.00">mapTreatmentNamesToPubchemCID</text>
<text text-anchor="middle" x="1662" y="-226" font-family="sans" font-size="10.00">dataset: ctrp</text>
</g>
<!-- 9&#45;&gt;8 -->
<g id="edge26" class="edge">
<title>9&#45;&gt;8</title>
<path fill="none" stroke="grey" stroke-width="2" d="M1596.78,-215.97C1558.28,-205.91 1509.38,-193.14 1469.25,-182.65"/>
<polygon fill="grey" stroke="grey" stroke-width="2" points="1470.07,-179.25 1459.51,-180.11 1468.3,-186.02 1470.07,-179.25"/>
</g>
<!-- 10 -->
<g id="node11" class="node">
<title>10</title>
<path fill="none" stroke="#afd856" stroke-width="2" d="M1652,-180C1652,-180 1508,-180 1508,-180 1502,-180 1496,-174 1496,-168 1496,-168 1496,-156 1496,-156 1496,-150 1502,-144 1508,-144 1508,-144 1652,-144 1652,-144 1658,-144 1664,-150 1664,-156 1664,-156 1664,-168 1664,-168 1664,-174 1658,-180 1652,-180"/>
<text text-anchor="middle" x="1580" y="-165" font-family="sans" font-size="10.00">getExternalAnnotationFromCID</text>
<text text-anchor="middle" x="1580" y="-154" font-family="sans" font-size="10.00">annotationType: NSC Number</text>
</g>
<!-- 9&#45;&gt;10 -->
<g id="edge27" class="edge">
<title>9&#45;&gt;10</title>
<path fill="none" stroke="grey" stroke-width="2" d="M1641.73,-215.7C1631.5,-206.97 1618.94,-196.24 1607.82,-186.75"/>
<polygon fill="grey" stroke="grey" stroke-width="2" points="1609.91,-183.94 1600.04,-180.1 1605.37,-189.26 1609.91,-183.94"/>
</g>
<!-- 11 -->
<g id="node12" class="node">
<title>11</title>
<path fill="none" stroke="#afd856" stroke-width="2" d="M1980,-180C1980,-180 1836,-180 1836,-180 1830,-180 1824,-174 1824,-168 1824,-168 1824,-156 1824,-156 1824,-150 1830,-144 1836,-144 1836,-144 1980,-144 1980,-144 1986,-144 1992,-150 1992,-156 1992,-156 1992,-168 1992,-168 1992,-174 1986,-180 1980,-180"/>
<text text-anchor="middle" x="1908" y="-165" font-family="sans" font-size="10.00">getExternalAnnotationFromCID</text>
<text text-anchor="middle" x="1908" y="-154" font-family="sans" font-size="10.00">annotationType: ChEMBL ID</text>
</g>
<!-- 9&#45;&gt;11 -->
<g id="edge28" class="edge">
<title>9&#45;&gt;11</title>
<path fill="none" stroke="grey" stroke-width="2" d="M1721.86,-215.97C1756.98,-205.97 1801.52,-193.3 1838.23,-182.85"/>
<polygon fill="grey" stroke="grey" stroke-width="2" points="1839.21,-186.21 1847.87,-180.11 1837.29,-179.48 1839.21,-186.21"/>
</g>
<!-- 12 -->
<g id="node13" class="node">
<title>12</title>
<path fill="none" stroke="#afd856" stroke-width="2" d="M2218,-180C2218,-180 2022,-180 2022,-180 2016,-180 2010,-174 2010,-168 2010,-168 2010,-156 2010,-156 2010,-150 2016,-144 2022,-144 2022,-144 2218,-144 2218,-144 2224,-144 2230,-150 2230,-156 2230,-156 2230,-168 2230,-168 2230,-174 2224,-180 2218,-180"/>
<text text-anchor="middle" x="2120" y="-165" font-family="sans" font-size="10.00">getExternalAnnotationFromCID</text>
<text text-anchor="middle" x="2120" y="-154" font-family="sans" font-size="10.00">annotationType: Drug Induced Liver Injury</text>
</g>
<!-- 9&#45;&gt;12 -->
<g id="edge29" class="edge">
<title>9&#45;&gt;12</title>
<path fill="none" stroke="grey" stroke-width="2" d="M1759.69,-218.07C1829.84,-207.35 1924.81,-192.83 1999.64,-181.39"/>
<polygon fill="grey" stroke="grey" stroke-width="2" points="2000.24,-184.84 2009.6,-179.87 1999.18,-177.92 2000.24,-184.84"/>
</g>
<!-- 13 -->
<g id="node14" class="node">
<title>13</title>
<path fill="none" stroke="#afd856" stroke-width="2" d="M1280,-180C1280,-180 1136,-180 1136,-180 1130,-180 1124,-174 1124,-168 1124,-168 1124,-156 1124,-156 1124,-150 1130,-144 1136,-144 1136,-144 1280,-144 1280,-144 1286,-144 1292,-150 1292,-156 1292,-156 1292,-168 1292,-168 1292,-174 1286,-180 1280,-180"/>
<text text-anchor="middle" x="1208" y="-165" font-family="sans" font-size="10.00">getExternalAnnotationFromCID</text>
<text text-anchor="middle" x="1208" y="-154" font-family="sans" font-size="10.00">annotationType: CAS</text>
</g>
<!-- 9&#45;&gt;13 -->
<g id="edge30" class="edge">
<title>9&#45;&gt;13</title>
<path fill="none" stroke="grey" stroke-width="2" d="M1564.18,-219.58C1493.96,-209.73 1396.82,-195.65 1302.17,-180.16"/>
<polygon fill="grey" stroke="grey" stroke-width="2" points="1302.56,-176.68 1292.13,-178.51 1301.43,-183.59 1302.56,-176.68"/>
</g>
<!-- 22 -->
<g id="node23" class="node">
<title>22</title>
<path fill="none" stroke="#5692d8" stroke-width="2" d="M1794,-180C1794,-180 1694,-180 1694,-180 1688,-180 1682,-174 1682,-168 1682,-168 1682,-156 1682,-156 1682,-150 1688,-144 1694,-144 1694,-144 1794,-144 1794,-144 1800,-144 1806,-150 1806,-156 1806,-156 1806,-168 1806,-168 1806,-174 1800,-180 1794,-180"/>
<text text-anchor="middle" x="1744" y="-159.5" font-family="sans" font-size="10.00">getPropertiesFromCID</text>
</g>
<!-- 9&#45;&gt;22 -->
<g id="edge53" class="edge">
<title>9&#45;&gt;22</title>
<path fill="none" stroke="grey" stroke-width="2" d="M1682.27,-215.7C1692.5,-206.97 1705.06,-196.24 1716.18,-186.75"/>
<polygon fill="grey" stroke="grey" stroke-width="2" points="1718.63,-189.26 1723.96,-180.1 1714.09,-183.94 1718.63,-189.26"/>
</g>
<!-- 10&#45;&gt;1 -->
<g id="edge11" class="edge">
<title>10&#45;&gt;1</title>
<path fill="none" stroke="grey" stroke-width="2" d="M1572.09,-143.7C1568.45,-135.73 1564.05,-126.1 1560.01,-117.26"/>
<polygon fill="grey" stroke="grey" stroke-width="2" points="1563.16,-115.74 1555.82,-108.1 1556.79,-118.65 1563.16,-115.74"/>
</g>
<!-- 10&#45;&gt;21 -->
<g id="edge43" class="edge">
<title>10&#45;&gt;21</title>
<path fill="none" stroke="grey" stroke-width="2" d="M1616.2,-143.88C1636.26,-134.39 1661.37,-122.51 1682.71,-112.42"/>
<polygon fill="grey" stroke="grey" stroke-width="2" points="1684.37,-115.51 1691.91,-108.07 1681.38,-109.18 1684.37,-115.51"/>
</g>
<!-- 10&#45;&gt;23 -->
<g id="edge60" class="edge">
<title>10&#45;&gt;23</title>
<path fill="none" stroke="grey" stroke-width="2" d="M1659.82,-143.97C1707.63,-133.76 1768.54,-120.76 1818.05,-110.2"/>
<polygon fill="grey" stroke="grey" stroke-width="2" points="1819.06,-113.56 1828.11,-108.05 1817.6,-106.71 1819.06,-113.56"/>
</g>
<!-- 11&#45;&gt;1 -->
<g id="edge12" class="edge">
<title>11&#45;&gt;1</title>
<path fill="none" stroke="grey" stroke-width="2" d="M1823.6,-144.59C1768.21,-133.82 1695.82,-119.74 1639.12,-108.72"/>
<polygon fill="grey" stroke="grey" stroke-width="2" points="1639.57,-105.24 1629.09,-106.77 1638.24,-112.11 1639.57,-105.24"/>
</g>
<!-- 11&#45;&gt;21 -->
<g id="edge44" class="edge">
<title>11&#45;&gt;21</title>
<path fill="none" stroke="grey" stroke-width="2" d="M1863.97,-143.88C1839.03,-134.18 1807.66,-121.98 1781.34,-111.74"/>
<polygon fill="grey" stroke="grey" stroke-width="2" points="1782.48,-108.43 1771.89,-108.07 1779.94,-114.95 1782.48,-108.43"/>
</g>
<!-- 11&#45;&gt;23 -->
<g id="edge61" class="edge">
<title>11&#45;&gt;23</title>
<path fill="none" stroke="grey" stroke-width="2" d="M1908,-143.7C1908,-135.98 1908,-126.71 1908,-118.11"/>
<polygon fill="grey" stroke="grey" stroke-width="2" points="1911.5,-118.1 1908,-108.1 1904.5,-118.1 1911.5,-118.1"/>
</g>
<!-- 12&#45;&gt;1 -->
<g id="edge13" class="edge">
<title>12&#45;&gt;1</title>
<path fill="none" stroke="grey" stroke-width="2" d="M2009.8,-145.09C2006.84,-144.71 2003.9,-144.35 2001,-144 1843.35,-124.93 1800.23,-130.81 1639.63,-108.16"/>
<polygon fill="grey" stroke="grey" stroke-width="2" points="1639.78,-104.65 1629.38,-106.7 1638.79,-111.58 1639.78,-104.65"/>
</g>
<!-- 12&#45;&gt;21 -->
<g id="edge45" class="edge">
<title>12&#45;&gt;21</title>
<path fill="none" stroke="grey" stroke-width="2" d="M2020.99,-143.96C1964.66,-134.18 1892.51,-121.53 1819.7,-108.3"/>
<polygon fill="grey" stroke="grey" stroke-width="2" points="1819.89,-104.78 1809.43,-106.43 1818.64,-111.66 1819.89,-104.78"/>
</g>
<!-- 12&#45;&gt;23 -->
<g id="edge62" class="edge">
<title>12&#45;&gt;23</title>
<path fill="none" stroke="grey" stroke-width="2" d="M2068.41,-143.97C2038.53,-134.1 2000.74,-121.62 1969.34,-111.25"/>
<polygon fill="grey" stroke="grey" stroke-width="2" points="1970.41,-107.92 1959.82,-108.11 1968.22,-114.57 1970.41,-107.92"/>
</g>
<!-- 13&#45;&gt;1 -->
<g id="edge14" class="edge">
<title>13&#45;&gt;1</title>
<path fill="none" stroke="grey" stroke-width="2" d="M1290.74,-143.97C1341.06,-133.61 1405.37,-120.36 1457.11,-109.71"/>
<polygon fill="grey" stroke="grey" stroke-width="2" points="1457.86,-113.13 1466.95,-107.69 1456.45,-106.28 1457.86,-113.13"/>
</g>
<!-- 13&#45;&gt;21 -->
<g id="edge46" class="edge">
<title>13&#45;&gt;21</title>
<path fill="none" stroke="grey" stroke-width="2" d="M1292.1,-145.34C1295.1,-144.87 1298.08,-144.42 1301,-144 1446.88,-122.91 1487.26,-129.69 1636.62,-108.14"/>
<polygon fill="grey" stroke="grey" stroke-width="2" points="1637.23,-111.59 1646.61,-106.68 1636.21,-104.66 1637.23,-111.59"/>
</g>
<!-- 13&#45;&gt;23 -->
<g id="edge63" class="edge">
<title>13&#45;&gt;23</title>
<path fill="none" stroke="grey" stroke-width="2" d="M1292.08,-145.2C1295.09,-144.77 1298.07,-144.37 1301,-144 1526.3,-115.65 1587.82,-136.81 1816.67,-108.08"/>
<polygon fill="grey" stroke="grey" stroke-width="2" points="1817.16,-111.55 1826.63,-106.81 1816.27,-104.6 1817.16,-111.55"/>
</g>
<!-- 14 -->
<g id="node15" class="node">
<title>14</title>
<path fill="none" stroke="#afd856" stroke-width="2" d="M2590,-180C2590,-180 2446,-180 2446,-180 2440,-180 2434,-174 2434,-168 2434,-168 2434,-156 2434,-156 2434,-150 2440,-144 2446,-144 2446,-144 2590,-144 2590,-144 2596,-144 2602,-150 2602,-156 2602,-156 2602,-168 2602,-168 2602,-174 2596,-180 2590,-180"/>
<text text-anchor="middle" x="2518" y="-165" font-family="sans" font-size="10.00">getExternalAnnotationFromCID</text>
<text text-anchor="middle" x="2518" y="-154" font-family="sans" font-size="10.00">annotationType: ATC Code</text>
</g>
<!-- 14&#45;&gt;1 -->
<g id="edge15" class="edge">
<title>14&#45;&gt;1</title>
<path fill="none" stroke="grey" stroke-width="2" d="M2433.93,-145.11C2430.92,-144.7 2427.94,-144.33 2425,-144 2080.41,-104.81 1987.54,-147.76 1639.47,-108.07"/>
<polygon fill="grey" stroke="grey" stroke-width="2" points="1639.69,-104.57 1629.36,-106.9 1638.89,-111.52 1639.69,-104.57"/>
</g>
<!-- 14&#45;&gt;21 -->
<g id="edge47" class="edge">
<title>14&#45;&gt;21</title>
<path fill="none" stroke="grey" stroke-width="2" d="M2433.92,-145.16C2430.91,-144.74 2427.93,-144.35 2425,-144 2159.97,-112.04 2087.96,-140.44 1819.41,-108.08"/>
<polygon fill="grey" stroke="grey" stroke-width="2" points="1819.71,-104.59 1809.36,-106.85 1818.86,-111.54 1819.71,-104.59"/>
</g>
<!-- 14&#45;&gt;23 -->
<g id="edge64" class="edge">
<title>14&#45;&gt;23</title>
<path fill="none" stroke="grey" stroke-width="2" d="M2433.9,-145.32C2430.9,-144.86 2427.92,-144.42 2425,-144 2276.53,-122.85 2102.91,-106.82 1999.39,-98.18"/>
<polygon fill="grey" stroke="grey" stroke-width="2" points="1999.54,-94.68 1989.28,-97.34 1998.96,-101.66 1999.54,-94.68"/>
</g>
<!-- 15 -->
<g id="node16" class="node">
<title>15</title>
<path fill="none" stroke="#d8cb56" stroke-width="2" d="M2882.5,-252C2882.5,-252 2711.5,-252 2711.5,-252 2705.5,-252 2699.5,-246 2699.5,-240 2699.5,-240 2699.5,-228 2699.5,-228 2699.5,-222 2705.5,-216 2711.5,-216 2711.5,-216 2882.5,-216 2882.5,-216 2888.5,-216 2894.5,-222 2894.5,-228 2894.5,-228 2894.5,-240 2894.5,-240 2894.5,-246 2888.5,-252 2882.5,-252"/>
<text text-anchor="middle" x="2797" y="-237" font-family="sans" font-size="10.00">mapTreatmentNamesToPubchemCID</text>
<text text-anchor="middle" x="2797" y="-226" font-family="sans" font-size="10.00">dataset: gdsc</text>
</g>
<!-- 15&#45;&gt;14 -->
<g id="edge31" class="edge">
<title>15&#45;&gt;14</title>
<path fill="none" stroke="grey" stroke-width="2" d="M2729.11,-215.97C2688.94,-205.89 2637.9,-193.08 2596.07,-182.59"/>
<polygon fill="grey" stroke="grey" stroke-width="2" points="2596.75,-179.15 2586.2,-180.11 2595.05,-185.94 2596.75,-179.15"/>
</g>
<!-- 16 -->
<g id="node17" class="node">
<title>16</title>
<path fill="none" stroke="#afd856" stroke-width="2" d="M2776,-180C2776,-180 2632,-180 2632,-180 2626,-180 2620,-174 2620,-168 2620,-168 2620,-156 2620,-156 2620,-150 2626,-144 2632,-144 2632,-144 2776,-144 2776,-144 2782,-144 2788,-150 2788,-156 2788,-156 2788,-168 2788,-168 2788,-174 2782,-180 2776,-180"/>
<text text-anchor="middle" x="2704" y="-165" font-family="sans" font-size="10.00">getExternalAnnotationFromCID</text>
<text text-anchor="middle" x="2704" y="-154" font-family="sans" font-size="10.00">annotationType: NSC Number</text>
</g>
<!-- 15&#45;&gt;16 -->
<g id="edge32" class="edge">
<title>15&#45;&gt;16</title>
<path fill="none" stroke="grey" stroke-width="2" d="M2774.01,-215.7C2762.19,-206.8 2747.61,-195.82 2734.82,-186.2"/>
<polygon fill="grey" stroke="grey" stroke-width="2" points="2736.82,-183.32 2726.72,-180.1 2732.61,-188.91 2736.82,-183.32"/>
</g>
<!-- 17 -->
<g id="node18" class="node">
<title>17</title>
<path fill="none" stroke="#afd856" stroke-width="2" d="M2962,-180C2962,-180 2818,-180 2818,-180 2812,-180 2806,-174 2806,-168 2806,-168 2806,-156 2806,-156 2806,-150 2812,-144 2818,-144 2818,-144 2962,-144 2962,-144 2968,-144 2974,-150 2974,-156 2974,-156 2974,-168 2974,-168 2974,-174 2968,-180 2962,-180"/>
<text text-anchor="middle" x="2890" y="-165" font-family="sans" font-size="10.00">getExternalAnnotationFromCID</text>
<text text-anchor="middle" x="2890" y="-154" font-family="sans" font-size="10.00">annotationType: ChEMBL ID</text>
</g>
<!-- 15&#45;&gt;17 -->
<g id="edge33" class="edge">
<title>15&#45;&gt;17</title>
<path fill="none" stroke="grey" stroke-width="2" d="M2819.99,-215.7C2831.81,-206.8 2846.39,-195.82 2859.18,-186.2"/>
<polygon fill="grey" stroke="grey" stroke-width="2" points="2861.39,-188.91 2867.28,-180.1 2857.18,-183.32 2861.39,-188.91"/>
</g>
<!-- 18 -->
<g id="node19" class="node">
<title>18</title>
<path fill="none" stroke="#afd856" stroke-width="2" d="M3200,-180C3200,-180 3004,-180 3004,-180 2998,-180 2992,-174 2992,-168 2992,-168 2992,-156 2992,-156 2992,-150 2998,-144 3004,-144 3004,-144 3200,-144 3200,-144 3206,-144 3212,-150 3212,-156 3212,-156 3212,-168 3212,-168 3212,-174 3206,-180 3200,-180"/>
<text text-anchor="middle" x="3102" y="-165" font-family="sans" font-size="10.00">getExternalAnnotationFromCID</text>
<text text-anchor="middle" x="3102" y="-154" font-family="sans" font-size="10.00">annotationType: Drug Induced Liver Injury</text>
</g>
<!-- 15&#45;&gt;18 -->
<g id="edge34" class="edge">
<title>15&#45;&gt;18</title>
<path fill="none" stroke="grey" stroke-width="2" d="M2871.22,-215.97C2915.49,-205.8 2971.84,-192.87 3017.78,-182.33"/>
<polygon fill="grey" stroke="grey" stroke-width="2" points="3018.75,-185.7 3027.71,-180.05 3017.18,-178.88 3018.75,-185.7"/>
</g>
<!-- 19 -->
<g id="node20" class="node">
<title>19</title>
<path fill="none" stroke="#afd856" stroke-width="2" d="M2404,-180C2404,-180 2260,-180 2260,-180 2254,-180 2248,-174 2248,-168 2248,-168 2248,-156 2248,-156 2248,-150 2254,-144 2260,-144 2260,-144 2404,-144 2404,-144 2410,-144 2416,-150 2416,-156 2416,-156 2416,-168 2416,-168 2416,-174 2410,-180 2404,-180"/>
<text text-anchor="middle" x="2332" y="-165" font-family="sans" font-size="10.00">getExternalAnnotationFromCID</text>
<text text-anchor="middle" x="2332" y="-154" font-family="sans" font-size="10.00">annotationType: CAS</text>
</g>
<!-- 15&#45;&gt;19 -->
<g id="edge35" class="edge">
<title>15&#45;&gt;19</title>
<path fill="none" stroke="grey" stroke-width="2" d="M2699.33,-220.15C2626.7,-210.35 2524.91,-196.08 2426.27,-180.18"/>
<polygon fill="grey" stroke="grey" stroke-width="2" points="2426.56,-176.68 2416.12,-178.53 2425.44,-183.59 2426.56,-176.68"/>
</g>
<!-- 24 -->
<g id="node25" class="node">
<title>24</title>
<path fill="none" stroke="#5692d8" stroke-width="2" d="M3342,-180C3342,-180 3242,-180 3242,-180 3236,-180 3230,-174 3230,-168 3230,-168 3230,-156 3230,-156 3230,-150 3236,-144 3242,-144 3242,-144 3342,-144 3342,-144 3348,-144 3354,-150 3354,-156 3354,-156 3354,-168 3354,-168 3354,-174 3348,-180 3342,-180"/>
<text text-anchor="middle" x="3292" y="-159.5" font-family="sans" font-size="10.00">getPropertiesFromCID</text>
</g>
<!-- 15&#45;&gt;24 -->
<g id="edge70" class="edge">
<title>15&#45;&gt;24</title>
<path fill="none" stroke="grey" stroke-width="2" d="M2894.72,-223.89C2978.6,-215.35 3102.86,-201 3219.89,-180.1"/>
<polygon fill="grey" stroke="grey" stroke-width="2" points="3220.53,-183.54 3229.74,-178.32 3219.28,-176.65 3220.53,-183.54"/>
</g>
<!-- 16&#45;&gt;1 -->
<g id="edge16" class="edge">
<title>16&#45;&gt;1</title>
<path fill="none" stroke="grey" stroke-width="2" d="M2619.93,-145.07C2616.92,-144.68 2613.94,-144.32 2611,-144 2184.18,-97.34 2069.82,-155.37 1639.57,-108.07"/>
<polygon fill="grey" stroke="grey" stroke-width="2" points="1639.68,-104.56 1629.35,-106.93 1638.9,-111.52 1639.68,-104.56"/>
</g>
<!-- 16&#45;&gt;21 -->
<g id="edge48" class="edge">
<title>16&#45;&gt;21</title>
<path fill="none" stroke="grey" stroke-width="2" d="M2619.93,-145.1C2616.92,-144.7 2613.94,-144.33 2611,-144 2263.78,-104.57 2170.21,-148 1819.54,-108.08"/>
<polygon fill="grey" stroke="grey" stroke-width="2" points="1819.69,-104.57 1809.36,-106.9 1818.89,-111.52 1819.69,-104.57"/>
</g>
<!-- 16&#45;&gt;23 -->
<g id="edge65" class="edge">
<title>16&#45;&gt;23</title>
<path fill="none" stroke="grey" stroke-width="2" d="M2619.91,-145.22C2616.91,-144.79 2613.93,-144.38 2611,-144 2392.57,-115.88 2133.89,-101.11 1999.45,-94.81"/>
<polygon fill="grey" stroke="grey" stroke-width="2" points="1999.35,-91.3 1989.2,-94.33 1999.03,-98.29 1999.35,-91.3"/>
</g>
<!-- 17&#45;&gt;1 -->
<g id="edge17" class="edge">
<title>17&#45;&gt;1</title>
<path fill="none" stroke="grey" stroke-width="2" d="M2805.93,-145.05C2802.92,-144.66 2799.94,-144.31 2797,-144 2287.91,-89.87 2152.09,-163.02 1639.6,-108.06"/>
<polygon fill="grey" stroke="grey" stroke-width="2" points="1639.67,-104.55 1629.35,-106.95 1638.91,-111.51 1639.67,-104.55"/>
</g>
<!-- 17&#45;&gt;21 -->
<g id="edge49" class="edge">
<title>17&#45;&gt;21</title>
<path fill="none" stroke="grey" stroke-width="2" d="M2805.93,-145.07C2802.92,-144.68 2799.94,-144.32 2797,-144 2367.44,-97.09 2252.43,-155.64 1819.32,-108.04"/>
<polygon fill="grey" stroke="grey" stroke-width="2" points="1819.68,-104.56 1809.35,-106.93 1818.9,-111.52 1819.68,-104.56"/>
</g>
<!-- 17&#45;&gt;23 -->
<g id="edge66" class="edge">
<title>17&#45;&gt;23</title>
<path fill="none" stroke="grey" stroke-width="2" d="M2805.92,-145.16C2802.91,-144.74 2799.93,-144.35 2797,-144 2507.11,-108.99 2161.12,-96.79 1999.57,-92.8"/>
<polygon fill="grey" stroke="grey" stroke-width="2" points="1999.28,-89.29 1989.19,-92.55 1999.11,-96.29 1999.28,-89.29"/>
</g>
<!-- 18&#45;&gt;1 -->
<g id="edge18" class="edge">
<title>18&#45;&gt;1</title>
<path fill="none" stroke="grey" stroke-width="2" d="M2991.83,-144.81C2988.86,-144.52 2985.91,-144.25 2983,-144 2390.48,-93.91 2234.34,-170.83 1639.47,-108.05"/>
<polygon fill="grey" stroke="grey" stroke-width="2" points="1639.66,-104.55 1629.35,-106.97 1638.92,-111.51 1639.66,-104.55"/>
</g>
<!-- 18&#45;&gt;21 -->
<g id="edge50" class="edge">
<title>18&#45;&gt;21</title>
<path fill="none" stroke="grey" stroke-width="2" d="M2991.83,-144.82C2988.86,-144.53 2985.91,-144.25 2983,-144 2470.31,-99.6 2334.74,-163.39 1819.65,-108.07"/>
<polygon fill="grey" stroke="grey" stroke-width="2" points="1819.67,-104.55 1809.35,-106.95 1818.91,-111.51 1819.67,-104.55"/>
</g>
<!-- 18&#45;&gt;23 -->
<g id="edge67" class="edge">
<title>18&#45;&gt;23</title>
<path fill="none" stroke="grey" stroke-width="2" d="M2991.83,-144.89C2988.85,-144.58 2985.91,-144.28 2983,-144 2619.72,-109.17 2185.04,-96.64 1999.36,-92.65"/>
<polygon fill="grey" stroke="grey" stroke-width="2" points="1999.17,-89.15 1989.1,-92.43 1999.02,-96.15 1999.17,-89.15"/>
</g>
<!-- 19&#45;&gt;1 -->
<g id="edge19" class="edge">
<title>19&#45;&gt;1</title>
<path fill="none" stroke="grey" stroke-width="2" d="M2247.92,-145.16C2244.91,-144.74 2241.93,-144.35 2239,-144 1976.59,-112.27 1905.29,-140.2 1639.31,-108.07"/>
<polygon fill="grey" stroke="grey" stroke-width="2" points="1639.71,-104.59 1629.36,-106.85 1638.86,-111.54 1639.71,-104.59"/>
</g>
<!-- 19&#45;&gt;21 -->
<g id="edge51" class="edge">
<title>19&#45;&gt;21</title>
<path fill="none" stroke="grey" stroke-width="2" d="M2247.91,-145.26C2244.9,-144.81 2241.93,-144.39 2239,-144 2056.14,-119.53 2005.82,-132.97 1819.51,-108.12"/>
<polygon fill="grey" stroke="grey" stroke-width="2" points="1819.75,-104.63 1809.37,-106.75 1818.82,-111.56 1819.75,-104.63"/>
</g>
<!-- 19&#45;&gt;23 -->
<g id="edge68" class="edge">
<title>19&#45;&gt;23</title>
<path fill="none" stroke="grey" stroke-width="2" d="M2247.87,-145.53C2244.87,-145.01 2241.91,-144.5 2239,-144 2157.98,-130.11 2065.6,-115.41 1999.06,-105.03"/>
<polygon fill="grey" stroke="grey" stroke-width="2" points="1999.44,-101.55 1989.02,-103.46 1998.36,-108.46 1999.44,-101.55"/>
</g>
<!-- 20&#45;&gt;1 -->
<g id="edge20" class="edge">
<title>20&#45;&gt;1</title>
<path fill="none" stroke="grey" stroke-width="2" d="M124.21,-145.37C127.17,-144.86 130.11,-144.4 133,-144 390.14,-108.75 1185.8,-95.59 1456.64,-92.06"/>
<polygon fill="grey" stroke="grey" stroke-width="2" points="1456.87,-95.56 1466.82,-91.93 1456.78,-88.56 1456.87,-95.56"/>
</g>
<!-- 21&#45;&gt;0 -->
<g id="edge2" class="edge">
<title>21&#45;&gt;0</title>
<path fill="none" stroke="grey" stroke-width="2" d="M1750.25,-71.7C1761.58,-62.88 1775.53,-52.03 1787.82,-42.47"/>
<polygon fill="grey" stroke="grey" stroke-width="2" points="1790.26,-45.01 1796.01,-36.1 1785.97,-39.48 1790.26,-45.01"/>
</g>
<!-- 22&#45;&gt;21 -->
<g id="edge52" class="edge">
<title>22&#45;&gt;21</title>
<path fill="none" stroke="grey" stroke-width="2" d="M1740.04,-143.7C1738.28,-135.98 1736.16,-126.71 1734.2,-118.11"/>
<polygon fill="grey" stroke="grey" stroke-width="2" points="1737.55,-117.07 1731.91,-108.1 1730.73,-118.63 1737.55,-117.07"/>
</g>
<!-- 23&#45;&gt;0 -->
<g id="edge3" class="edge">
<title>23&#45;&gt;0</title>
<path fill="none" stroke="grey" stroke-width="2" d="M1885.75,-71.7C1874.42,-62.88 1860.47,-52.03 1848.18,-42.47"/>
<polygon fill="grey" stroke="grey" stroke-width="2" points="1850.03,-39.48 1839.99,-36.1 1845.74,-45.01 1850.03,-39.48"/>
</g>
<!-- 24&#45;&gt;23 -->
<g id="edge69" class="edge">
<title>24&#45;&gt;23</title>
<path fill="none" stroke="grey" stroke-width="2" d="M3229.79,-145.38C3226.83,-144.87 3223.89,-144.4 3221,-144 2984.48,-111.23 2256.87,-96.61 1999.43,-92.37"/>
<polygon fill="grey" stroke="grey" stroke-width="2" points="1999.42,-88.87 1989.36,-92.21 1999.3,-95.87 1999.42,-88.87"/>
</g>
<!-- 25 -->
<g id="node26" class="node">
<title>25</title>
<path fill="none" stroke="#d85656" stroke-width="2" d="M3577.5,-108C3577.5,-108 3402.5,-108 3402.5,-108 3396.5,-108 3390.5,-102 3390.5,-96 3390.5,-96 3390.5,-84 3390.5,-84 3390.5,-78 3396.5,-72 3402.5,-72 3402.5,-72 3577.5,-72 3577.5,-72 3583.5,-72 3589.5,-78 3589.5,-84 3589.5,-84 3589.5,-96 3589.5,-96 3589.5,-102 3583.5,-108 3577.5,-108"/>
<text text-anchor="middle" x="3490" y="-87.5" font-family="sans" font-size="10.00">combineSampleCellosaurusMetadata</text>
</g>
<!-- 25&#45;&gt;0 -->
<g id="edge4" class="edge">
<title>25&#45;&gt;0</title>
<path fill="none" stroke="grey" stroke-width="2" d="M3390.42,-84.83C3068.06,-71.33 2061.96,-29.21 1855.32,-20.56"/>
<polygon fill="grey" stroke="grey" stroke-width="2" points="1855.41,-17.06 1845.28,-20.14 1855.12,-24.06 1855.41,-17.06"/>
</g>
<!-- 26 -->
<g id="node27" class="node">
<title>26</title>
<path fill="none" stroke="#56c9d8" stroke-width="2" d="M3596,-180C3596,-180 3384,-180 3384,-180 3378,-180 3372,-174 3372,-168 3372,-168 3372,-156 3372,-156 3372,-150 3378,-144 3384,-144 3384,-144 3596,-144 3596,-144 3602,-144 3608,-150 3608,-156 3608,-156 3608,-168 3608,-168 3608,-174 3602,-180 3596,-180"/>
<text text-anchor="middle" x="3490" y="-165" font-family="sans" font-size="10.00">mapSampleNamesToCellosaurusAccessionID</text>
<text text-anchor="middle" x="3490" y="-154" font-family="sans" font-size="10.00">dataset: ctrp</text>
</g>
<!-- 26&#45;&gt;25 -->
<g id="edge71" class="edge">
<title>26&#45;&gt;25</title>
<path fill="none" stroke="grey" stroke-width="2" d="M3490,-143.7C3490,-135.98 3490,-126.71 3490,-118.11"/>
<polygon fill="grey" stroke="grey" stroke-width="2" points="3493.5,-118.1 3490,-108.1 3486.5,-118.1 3493.5,-118.1"/>
</g>
<!-- 27 -->
<g id="node28" class="node">
<title>27</title>
<path fill="none" stroke="#56d8a9" stroke-width="2" stroke-dasharray="5,2" d="M3611.5,-252C3611.5,-252 3514.5,-252 3514.5,-252 3508.5,-252 3502.5,-246 3502.5,-240 3502.5,-240 3502.5,-228 3502.5,-228 3502.5,-222 3508.5,-216 3514.5,-216 3514.5,-216 3611.5,-216 3611.5,-216 3617.5,-216 3623.5,-222 3623.5,-228 3623.5,-228 3623.5,-240 3623.5,-240 3623.5,-246 3617.5,-252 3611.5,-252"/>
<text text-anchor="middle" x="3563" y="-231.5" font-family="sans" font-size="10.00">getCellosaurusObject</text>
</g>
<!-- 27&#45;&gt;25 -->
<g id="edge72" class="edge">
<title>27&#45;&gt;25</title>
<path fill="none" stroke="grey" stroke-width="2" d="M3587.93,-215.86C3599.06,-206.67 3611,-194.29 3617,-180 3623.19,-165.25 3625.87,-157.32 3617,-144 3607.78,-130.17 3594.2,-119.94 3579.3,-112.38"/>
<polygon fill="grey" stroke="grey" stroke-width="2" points="3580.43,-109.04 3569.88,-108.01 3577.48,-115.39 3580.43,-109.04"/>
</g>
<!-- 27&#45;&gt;26 -->
<g id="edge73" class="edge">
<title>27&#45;&gt;26</title>
<path fill="none" stroke="grey" stroke-width="2" d="M3544.96,-215.7C3535.94,-207.05 3524.88,-196.45 3515.06,-187.03"/>
<polygon fill="grey" stroke="grey" stroke-width="2" points="3517.48,-184.5 3507.84,-180.1 3512.63,-189.55 3517.48,-184.5"/>
</g>
</g>
</svg>
