<?xml version="1.0" encoding="UTF-8" standalone="no"?>
<!DOCTYPE svg PUBLIC "-//W3C//DTD SVG 1.1//EN"
 "http://www.w3.org/Graphics/SVG/1.1/DTD/svg11.dtd">
<!-- Generated by graphviz version 2.43.0 (0)
 -->
<!-- Title: snakemake_dag Pages: 1 -->
<svg width="392pt" height="188pt"
 viewBox="0.00 0.00 392.00 188.00" xmlns="http://www.w3.org/2000/svg" xmlns:xlink="http://www.w3.org/1999/xlink">
<g id="graph0" class="graph" transform="scale(1 1) rotate(0) translate(4 184)">
<title>snakemake_dag</title>
<polygon fill="white" stroke="transparent" points="-4,4 -4,-184 388,-184 388,4 -4,4"/>
<!-- 0 -->
<g id="node1" class="node">
<title>0</title>
<path fill="none" stroke="#56d8a9" stroke-width="2" d="M207,-36C207,-36 177,-36 177,-36 171,-36 165,-30 165,-24 165,-24 165,-12 165,-12 165,-6 171,0 177,0 177,0 207,0 207,0 213,0 219,-6 219,-12 219,-12 219,-24 219,-24 219,-30 213,-36 207,-36"/>
<text text-anchor="middle" x="192" y="-15.5" font-family="sans" font-size="10.00">all</text>
</g>
<!-- 1 -->
<g id="node2" class="node">
<title>1</title>
<path fill="none" stroke="#afd856" stroke-width="2" d="M104,-108C104,-108 12,-108 12,-108 6,-108 0,-102 0,-96 0,-96 0,-84 0,-84 0,-78 6,-72 12,-72 12,-72 104,-72 104,-72 110,-72 116,-78 116,-84 116,-84 116,-96 116,-96 116,-102 110,-108 104,-108"/>
<text text-anchor="middle" x="58" y="-87.5" font-family="sans" font-size="10.00">getSampleMetadata</text>
</g>
<!-- 1&#45;&gt;0 -->
<g id="edge1" class="edge">
<title>1&#45;&gt;0</title>
<path fill="none" stroke="grey" stroke-width="2" d="M90.78,-71.88C110.53,-61.56 135.71,-48.4 156.02,-37.8"/>
<polygon fill="grey" stroke="grey" stroke-width="2" points="157.72,-40.86 164.96,-33.12 154.48,-34.65 157.72,-40.86"/>
</g>
<!-- 2 -->
<g id="node3" class="node">
<title>2</title>
<path fill="none" stroke="#d85656" stroke-width="2" d="M90.5,-180C90.5,-180 25.5,-180 25.5,-180 19.5,-180 13.5,-174 13.5,-168 13.5,-168 13.5,-156 13.5,-156 13.5,-150 19.5,-144 25.5,-144 25.5,-144 90.5,-144 90.5,-144 96.5,-144 102.5,-150 102.5,-156 102.5,-156 102.5,-168 102.5,-168 102.5,-174 96.5,-180 90.5,-180"/>
<text text-anchor="middle" x="58" y="-165" font-family="sans" font-size="10.00">getCellosaurus</text>
<text text-anchor="middle" x="58" y="-154" font-family="sans" font-size="10.00">dataset: ccle</text>
</g>
<!-- 2&#45;&gt;1 -->
<g id="edge4" class="edge">
<title>2&#45;&gt;1</title>
<path fill="none" stroke="grey" stroke-width="2" d="M58,-143.7C58,-135.98 58,-126.71 58,-118.11"/>
<polygon fill="grey" stroke="grey" stroke-width="2" points="61.5,-118.1 58,-108.1 54.5,-118.1 61.5,-118.1"/>
</g>
<!-- 3 -->
<g id="node4" class="node">
<title>3</title>
<path fill="none" stroke="#afd856" stroke-width="2" d="M238,-108C238,-108 146,-108 146,-108 140,-108 134,-102 134,-96 134,-96 134,-84 134,-84 134,-78 140,-72 146,-72 146,-72 238,-72 238,-72 244,-72 250,-78 250,-84 250,-84 250,-96 250,-96 250,-102 244,-108 238,-108"/>
<text text-anchor="middle" x="192" y="-87.5" font-family="sans" font-size="10.00">getSampleMetadata</text>
</g>
<!-- 3&#45;&gt;0 -->
<g id="edge2" class="edge">
<title>3&#45;&gt;0</title>
<path fill="none" stroke="grey" stroke-width="2" d="M192,-71.7C192,-63.98 192,-54.71 192,-46.11"/>
<polygon fill="grey" stroke="grey" stroke-width="2" points="195.5,-46.1 192,-36.1 188.5,-46.1 195.5,-46.1"/>
</g>
<!-- 4 -->
<g id="node5" class="node">
<title>4</title>
<path fill="none" stroke="#d85656" stroke-width="2" d="M224.5,-180C224.5,-180 159.5,-180 159.5,-180 153.5,-180 147.5,-174 147.5,-168 147.5,-168 147.5,-156 147.5,-156 147.5,-150 153.5,-144 159.5,-144 159.5,-144 224.5,-144 224.5,-144 230.5,-144 236.5,-150 236.5,-156 236.5,-156 236.5,-168 236.5,-168 236.5,-174 230.5,-180 224.5,-180"/>
<text text-anchor="middle" x="192" y="-165" font-family="sans" font-size="10.00">getCellosaurus</text>
<text text-anchor="middle" x="192" y="-154" font-family="sans" font-size="10.00">dataset: ctrp</text>
</g>
<!-- 4&#45;&gt;3 -->
<g id="edge5" class="edge">
<title>4&#45;&gt;3</title>
<path fill="none" stroke="grey" stroke-width="2" d="M192,-143.7C192,-135.98 192,-126.71 192,-118.11"/>
<polygon fill="grey" stroke="grey" stroke-width="2" points="195.5,-118.1 192,-108.1 188.5,-118.1 195.5,-118.1"/>
</g>
<!-- 5 -->
<g id="node6" class="node">
<title>5</title>
<path fill="none" stroke="#afd856" stroke-width="2" d="M372,-108C372,-108 280,-108 280,-108 274,-108 268,-102 268,-96 268,-96 268,-84 268,-84 268,-78 274,-72 280,-72 280,-72 372,-72 372,-72 378,-72 384,-78 384,-84 384,-84 384,-96 384,-96 384,-102 378,-108 372,-108"/>
<text text-anchor="middle" x="326" y="-87.5" font-family="sans" font-size="10.00">getSampleMetadata</text>
</g>
<!-- 5&#45;&gt;0 -->
<g id="edge3" class="edge">
<title>5&#45;&gt;0</title>
<path fill="none" stroke="grey" stroke-width="2" d="M293.22,-71.88C273.47,-61.56 248.29,-48.4 227.98,-37.8"/>
<polygon fill="grey" stroke="grey" stroke-width="2" points="229.52,-34.65 219.04,-33.12 226.28,-40.86 229.52,-34.65"/>
</g>
<!-- 6 -->
<g id="node7" class="node">
<title>6</title>
<path fill="none" stroke="#d85656" stroke-width="2" d="M358.5,-180C358.5,-180 293.5,-180 293.5,-180 287.5,-180 281.5,-174 281.5,-168 281.5,-168 281.5,-156 281.5,-156 281.5,-150 287.5,-144 293.5,-144 293.5,-144 358.5,-144 358.5,-144 364.5,-144 370.5,-150 370.5,-156 370.5,-156 370.5,-168 370.5,-168 370.5,-174 364.5,-180 358.5,-180"/>
<text text-anchor="middle" x="326" y="-165" font-family="sans" font-size="10.00">getCellosaurus</text>
<text text-anchor="middle" x="326" y="-154" font-family="sans" font-size="10.00">dataset: gdsc</text>
</g>
<!-- 6&#45;&gt;5 -->
<g id="edge6" class="edge">
<title>6&#45;&gt;5</title>
<path fill="none" stroke="grey" stroke-width="2" d="M326,-143.7C326,-135.98 326,-126.71 326,-118.11"/>
<polygon fill="grey" stroke="grey" stroke-width="2" points="329.5,-118.1 326,-108.1 322.5,-118.1 329.5,-118.1"/>
</g>
</g>
</svg>
