<?xml version="1.0" encoding="UTF-8" standalone="no"?>
<!DOCTYPE svg PUBLIC "-//W3C//DTD SVG 1.1//EN"
 "http://www.w3.org/Graphics/SVG/1.1/DTD/svg11.dtd">
<!-- Generated by graphviz version 2.43.0 (0)
 -->
<!-- Title: snakemake_dag Pages: 1 -->
<svg width="428pt" height="260pt"
 viewBox="0.00 0.00 427.50 260.00" xmlns="http://www.w3.org/2000/svg" xmlns:xlink="http://www.w3.org/1999/xlink">
<g id="graph0" class="graph" transform="scale(1 1) rotate(0) translate(4 256)">
<title>snakemake_dag</title>
<polygon fill="white" stroke="transparent" points="-4,4 -4,-256 423.5,-256 423.5,4 -4,4"/>
<!-- 0 -->
<g id="node1" class="node">
<title>0</title>
<path fill="none" stroke="#56d8d8" stroke-width="2" stroke-dasharray="5,2" d="M207,-36C207,-36 177,-36 177,-36 171,-36 165,-30 165,-24 165,-24 165,-12 165,-12 165,-6 171,0 177,0 177,0 207,0 207,0 213,0 219,-6 219,-12 219,-12 219,-24 219,-24 219,-30 213,-36 207,-36"/>
<text text-anchor="middle" x="192" y="-15.5" font-family="sans" font-size="10.00">all</text>
</g>
<!-- 1 -->
<g id="node2" class="node">
<title>1</title>
<path fill="none" stroke="#d85656" stroke-width="2" stroke-dasharray="5,2" d="M104,-108C104,-108 12,-108 12,-108 6,-108 0,-102 0,-96 0,-96 0,-84 0,-84 0,-78 6,-72 12,-72 12,-72 104,-72 104,-72 110,-72 116,-78 116,-84 116,-84 116,-96 116,-96 116,-102 110,-108 104,-108"/>
<text text-anchor="middle" x="58" y="-87.5" font-family="sans" font-size="10.00">getSampleMetadata</text>
</g>
<!-- 1&#45;&gt;0 -->
<g id="edge1" class="edge">
<title>1&#45;&gt;0</title>
<path fill="none" stroke="grey" stroke-width="2" d="M90.78,-71.88C110.53,-61.56 135.71,-48.4 156.02,-37.8"/>
<polygon fill="grey" stroke="grey" stroke-width="2" points="157.72,-40.86 164.96,-33.12 154.48,-34.65 157.72,-40.86"/>
</g>
<!-- 2 -->
<g id="node3" class="node">
<title>2</title>
<path fill="none" stroke="#59d856" stroke-width="2" stroke-dasharray="5,2" d="M115.5,-180C115.5,-180 50.5,-180 50.5,-180 44.5,-180 38.5,-174 38.5,-168 38.5,-168 38.5,-156 38.5,-156 38.5,-150 44.5,-144 50.5,-144 50.5,-144 115.5,-144 115.5,-144 121.5,-144 127.5,-150 127.5,-156 127.5,-156 127.5,-168 127.5,-168 127.5,-174 121.5,-180 115.5,-180"/>
<text text-anchor="middle" x="83" y="-165" font-family="sans" font-size="10.00">getCellosaurus</text>
<text text-anchor="middle" x="83" y="-154" font-family="sans" font-size="10.00">dataset: ccle</text>
</g>
<!-- 2&#45;&gt;1 -->
<g id="edge4" class="edge">
<title>2&#45;&gt;1</title>
<path fill="none" stroke="grey" stroke-width="2" d="M76.82,-143.7C74,-135.81 70.61,-126.3 67.48,-117.55"/>
<polygon fill="grey" stroke="grey" stroke-width="2" points="70.77,-116.34 64.11,-108.1 64.18,-118.7 70.77,-116.34"/>
</g>
<!-- 3 -->
<g id="node4" class="node">
<title>3</title>
<path fill="none" stroke="#d6d856" stroke-width="2" stroke-dasharray="5,2" d="M240.5,-252C240.5,-252 143.5,-252 143.5,-252 137.5,-252 131.5,-246 131.5,-240 131.5,-240 131.5,-228 131.5,-228 131.5,-222 137.5,-216 143.5,-216 143.5,-216 240.5,-216 240.5,-216 246.5,-216 252.5,-222 252.5,-228 252.5,-228 252.5,-240 252.5,-240 252.5,-246 246.5,-252 240.5,-252"/>
<text text-anchor="middle" x="192" y="-231.5" font-family="sans" font-size="10.00">getCellosaurusObject</text>
</g>
<!-- 3&#45;&gt;1 -->
<g id="edge5" class="edge">
<title>3&#45;&gt;1</title>
<path fill="none" stroke="grey" stroke-width="2" d="M131.34,-230.06C95.6,-224.83 53.01,-211.74 30,-180 16.38,-161.21 26.78,-135.57 38.58,-116.63"/>
<polygon fill="grey" stroke="grey" stroke-width="2" points="41.57,-118.46 44.2,-108.19 35.74,-114.58 41.57,-118.46"/>
</g>
<!-- 3&#45;&gt;2 -->
<g id="edge6" class="edge">
<title>3&#45;&gt;2</title>
<path fill="none" stroke="grey" stroke-width="2" d="M165.34,-215.88C151.22,-206.81 133.69,-195.55 118.44,-185.76"/>
<polygon fill="grey" stroke="grey" stroke-width="2" points="120.07,-182.65 109.77,-180.19 116.29,-188.54 120.07,-182.65"/>
</g>
<!-- 4 -->
<g id="node5" class="node">
<title>4</title>
<path fill="none" stroke="#d85656" stroke-width="2" stroke-dasharray="5,2" d="M238,-108C238,-108 146,-108 146,-108 140,-108 134,-102 134,-96 134,-96 134,-84 134,-84 134,-78 140,-72 146,-72 146,-72 238,-72 238,-72 244,-72 250,-78 250,-84 250,-84 250,-96 250,-96 250,-102 244,-108 238,-108"/>
<text text-anchor="middle" x="192" y="-87.5" font-family="sans" font-size="10.00">getSampleMetadata</text>
</g>
<!-- 3&#45;&gt;4 -->
<g id="edge8" class="edge">
<title>3&#45;&gt;4</title>
<path fill="none" stroke="grey" stroke-width="2" d="M185.35,-215.63C181.8,-205.42 177.8,-192.17 176,-180 173.66,-164.17 173.66,-159.83 176,-144 177.28,-135.35 179.67,-126.15 182.22,-117.89"/>
<polygon fill="grey" stroke="grey" stroke-width="2" points="185.55,-118.96 185.35,-108.37 178.9,-116.78 185.55,-118.96"/>
</g>
<!-- 5 -->
<g id="node6" class="node">
<title>5</title>
<path fill="none" stroke="#59d856" stroke-width="2" stroke-dasharray="5,2" d="M261.5,-180C261.5,-180 196.5,-180 196.5,-180 190.5,-180 184.5,-174 184.5,-168 184.5,-168 184.5,-156 184.5,-156 184.5,-150 190.5,-144 196.5,-144 196.5,-144 261.5,-144 261.5,-144 267.5,-144 273.5,-150 273.5,-156 273.5,-156 273.5,-168 273.5,-168 273.5,-174 267.5,-180 261.5,-180"/>
<text text-anchor="middle" x="229" y="-165" font-family="sans" font-size="10.00">getCellosaurus</text>
<text text-anchor="middle" x="229" y="-154" font-family="sans" font-size="10.00">dataset: ctrp</text>
</g>
<!-- 3&#45;&gt;5 -->
<g id="edge9" class="edge">
<title>3&#45;&gt;5</title>
<path fill="none" stroke="grey" stroke-width="2" d="M201.15,-215.7C205.4,-207.64 210.56,-197.89 215.27,-188.98"/>
<polygon fill="grey" stroke="grey" stroke-width="2" points="218.38,-190.58 219.96,-180.1 212.19,-187.31 218.38,-190.58"/>
</g>
<!-- 6 -->
<g id="node7" class="node">
<title>6</title>
<path fill="none" stroke="#d85656" stroke-width="2" stroke-dasharray="5,2" d="M372,-108C372,-108 280,-108 280,-108 274,-108 268,-102 268,-96 268,-96 268,-84 268,-84 268,-78 274,-72 280,-72 280,-72 372,-72 372,-72 378,-72 384,-78 384,-84 384,-84 384,-96 384,-96 384,-102 378,-108 372,-108"/>
<text text-anchor="middle" x="326" y="-87.5" font-family="sans" font-size="10.00">getSampleMetadata</text>
</g>
<!-- 3&#45;&gt;6 -->
<g id="edge11" class="edge">
<title>3&#45;&gt;6</title>
<path fill="none" stroke="grey" stroke-width="2" d="M232.78,-215.82C249.93,-207.05 269.09,-195.03 283,-180 299.5,-162.17 310.9,-136.85 317.8,-117.77"/>
<polygon fill="grey" stroke="grey" stroke-width="2" points="321.16,-118.76 321.08,-108.17 314.53,-116.49 321.16,-118.76"/>
</g>
<!-- 7 -->
<g id="node8" class="node">
<title>7</title>
<path fill="none" stroke="#59d856" stroke-width="2" stroke-dasharray="5,2" d="M407.5,-180C407.5,-180 342.5,-180 342.5,-180 336.5,-180 330.5,-174 330.5,-168 330.5,-168 330.5,-156 330.5,-156 330.5,-150 336.5,-144 342.5,-144 342.5,-144 407.5,-144 407.5,-144 413.5,-144 419.5,-150 419.5,-156 419.5,-156 419.5,-168 419.5,-168 419.5,-174 413.5,-180 407.5,-180"/>
<text text-anchor="middle" x="375" y="-165" font-family="sans" font-size="10.00">getCellosaurus</text>
<text text-anchor="middle" x="375" y="-154" font-family="sans" font-size="10.00">dataset: gdsc</text>
</g>
<!-- 3&#45;&gt;7 -->
<g id="edge12" class="edge">
<title>3&#45;&gt;7</title>
<path fill="none" stroke="grey" stroke-width="2" d="M236.77,-215.88C262.12,-206.18 294.01,-193.98 320.77,-183.74"/>
<polygon fill="grey" stroke="grey" stroke-width="2" points="322.29,-186.91 330.38,-180.07 319.79,-180.37 322.29,-186.91"/>
</g>
<!-- 4&#45;&gt;0 -->
<g id="edge2" class="edge">
<title>4&#45;&gt;0</title>
<path fill="none" stroke="grey" stroke-width="2" d="M192,-71.7C192,-63.98 192,-54.71 192,-46.11"/>
<polygon fill="grey" stroke="grey" stroke-width="2" points="195.5,-46.1 192,-36.1 188.5,-46.1 195.5,-46.1"/>
</g>
<!-- 5&#45;&gt;4 -->
<g id="edge7" class="edge">
<title>5&#45;&gt;4</title>
<path fill="none" stroke="grey" stroke-width="2" d="M219.85,-143.7C215.6,-135.64 210.44,-125.89 205.73,-116.98"/>
<polygon fill="grey" stroke="grey" stroke-width="2" points="208.81,-115.31 201.04,-108.1 202.62,-118.58 208.81,-115.31"/>
</g>
<!-- 6&#45;&gt;0 -->
<g id="edge3" class="edge">
<title>6&#45;&gt;0</title>
<path fill="none" stroke="grey" stroke-width="2" d="M293.22,-71.88C273.47,-61.56 248.29,-48.4 227.98,-37.8"/>
<polygon fill="grey" stroke="grey" stroke-width="2" points="229.52,-34.65 219.04,-33.12 226.28,-40.86 229.52,-34.65"/>
</g>
<!-- 7&#45;&gt;6 -->
<g id="edge10" class="edge">
<title>7&#45;&gt;6</title>
<path fill="none" stroke="grey" stroke-width="2" d="M362.89,-143.7C357.13,-135.47 350.14,-125.48 343.79,-116.42"/>
<polygon fill="grey" stroke="grey" stroke-width="2" points="346.58,-114.29 337.97,-108.1 340.84,-118.3 346.58,-114.29"/>
</g>
</g>
</svg>
